<svg xmlns="http://www.w3.org/2000/svg" viewBox="0 0 222.4 324.4"><g id="Livello_2" data-name="Livello 2"><g id="Livello_1-2" data-name="Livello 1"><path d="M215.6,142.8A91.5,91.5,0,0,0,105,75.8c-49,12-80.7,58.8-67.9,110.8,2.7,11.5,9.4,34.4,36,54.9,9.7,9,12.6,21.7,4.9,27.9a38.6,38.6,0,0,0-60-6,2.7,2.7,0,0,0-.6,2.7,38.4,38.4,0,0,0,23.6,23,38.9,38.9,0,0,0-10.3,31.2,2.7,2.7,0,0,0,1.8,2.2,38.6,38.6,0,0,0,50-29.8h0C253.6,250.7,215.6,142.8,215.6,142.8Z" style="fill:#b894e2"/><ellipse cx="152.2" cy="151.2" rx="8.8" ry="2.2" transform="translate(-49.5 78.1) rotate(-24.9)" style="fill:#342458"/><path d="M137.2,71.2c-6.9-3.7-13.3,5.7-11.9,13.9-5.7-6.2-17.3-6.6-18.3,1.3-.7,5.6,1.7,9.7,5.5,12.7a18.4,18.4,0,0,0,10.6,4.2,20,20,0,0,0,10.5-2.1,19.4,19.4,0,0,0,10.7-18.3C144,78.2,142.1,73.9,137.2,71.2Z" style="fill:#ccf"/><path d="M137.5,67.3c-6.6-3.6-12.7,5.4-11.3,13.2-5.5-5.9-16.6-6.3-17.5,1.3-.7,5.4,1.6,9.3,5.2,12.2A18.3,18.3,0,0,0,124,98a19.7,19.7,0,0,0,10.2-2,18.5,18.5,0,0,0,10.1-17.4,13.9,13.9,0,0,0-1.8-6.6A12.7,12.7,0,0,0,137.5,67.3Z" style="fill:#ccf"/><path d="M137.9,63.3c-6.3-3.4-12.2,5.2-10.8,12.7-5.2-5.7-15.8-6-16.7,1.2-.7,5.1,1.5,8.9,4.9,11.6a17.9,17.9,0,0,0,29.1-14.5,13.9,13.9,0,0,0-1.7-6.4A12.5,12.5,0,0,0,137.9,63.3Z" style="fill:#ccf"/><path d="M138.3,59.4c-6-3.3-11.6,4.9-10.3,12-5-5.3-15.1-5.7-16,1.2-.6,4.9,1.5,8.4,4.8,11a15.7,15.7,0,0,0,9.1,3.7,17.4,17.4,0,0,0,9.4-1.6,17,17,0,0,0,9.1-15.8,13.2,13.2,0,0,0-1.6-6.1A11.2,11.2,0,0,0,138.3,59.4Z" style="fill:#ccf"/><path d="M138.7,55.5c-5.7-3.1-11,4.7-9.8,11.5-4.7-5.2-14.3-5.5-15.2,1a11.3,11.3,0,0,0,4.5,10.5,16.1,16.1,0,0,0,8.7,3.6,17.7,17.7,0,0,0,9-1.5,16.2,16.2,0,0,0,8.6-14.9,13.2,13.2,0,0,0-1.5-5.9A10.5,10.5,0,0,0,138.7,55.5Z" style="fill:#ccf"/><path d="M139.1,51.6c-5.5-3-10.5,4.4-9.3,10.8-4.5-4.8-13.6-5.2-14.4,1a10.7,10.7,0,0,0,4.3,10,15.1,15.1,0,0,0,24.9-12.1,13.2,13.2,0,0,0-1.4-5.6A10.1,10.1,0,0,0,139.1,51.6Z" style="fill:#ccf"/><path d="M139.4,47.6c-5.1-2.8-9.8,4.2-8.7,10.3-4.3-4.6-12.9-4.9-13.6,1-.5,4.1,1.3,7.1,4,9.4a14.4,14.4,0,0,0,7.7,3.1,15.4,15.4,0,0,0,8.2-1.1A14.6,14.6,0,0,0,144.6,57a11,11,0,0,0-1.2-5.4A9.6,9.6,0,0,0,139.4,47.6Z" style="fill:#ccf"/><path d="M139.8,43.7c-4.8-2.6-9.3,3.9-8.2,9.7-4-4.4-12.1-4.6-12.8.9a9.4,9.4,0,0,0,3.7,8.8,14.1,14.1,0,0,0,7.3,3,13.9,13.9,0,0,0,7.8-1,13.8,13.8,0,0,0,7.1-12.4,11.6,11.6,0,0,0-1.1-5.2A9.3,9.3,0,0,0,139.8,43.7Z" style="fill:#ccf"/><path d="M140.2,39.8c-4.5-2.5-8.7,3.7-7.7,9-3.8-4-11.4-4.3-12,.9A8.8,8.8,0,0,0,124,58a13.6,13.6,0,0,0,6.7,2.8,12.8,12.8,0,0,0,7.5-.9,12.9,12.9,0,0,0,6.5-11.5,11.7,11.7,0,0,0-.9-5A8.3,8.3,0,0,0,140.2,39.8Z" style="fill:#ccf"/><path d="M140.6,35.8c-4.3-2.3-8.2,3.5-7.3,8.5-3.5-3.8-10.6-4-11.2.8a8.3,8.3,0,0,0,3.3,7.7,12.2,12.2,0,0,0,6.3,2.7,12.8,12.8,0,0,0,7-.7A12.5,12.5,0,0,0,144.8,44a10.9,10.9,0,0,0-.9-4.7A7.4,7.4,0,0,0,140.6,35.8Z" style="fill:#ccf"/><path d="M141,31.9c-4-2.2-7.6,3.2-6.8,7.8-3.2-3.5-9.8-3.7-10.4.8a7.4,7.4,0,0,0,3,7.1,12.5,12.5,0,0,0,5.9,2.6c2.6.4,5.2.2,6.6-.6s5.4-5.2,5.5-9.9a9.9,9.9,0,0,0-.7-4.5A7,7,0,0,0,141,31.9Z" style="fill:#ccf"/><path d="M141.3,27.9c-3.6-1.9-7,3-6.2,7.3-3-3.2-9.1-3.5-9.6.7a7,7,0,0,0,2.7,6.6,11.3,11.3,0,0,0,5.4,2.3,11,11,0,0,0,6.2-.3c2.6-1.3,4.9-4.8,5.1-9.1a10.2,10.2,0,0,0-.6-4.3A7.6,7.6,0,0,0,141.3,27.9Z" style="fill:#ccf"/><path d="M141.7,24c-3.3-1.8-6.4,2.7-5.7,6.7-2.8-3-8.4-3.2-8.8.6a6.1,6.1,0,0,0,2.5,6,10.4,10.4,0,0,0,4.9,2.2,10.7,10.7,0,0,0,5.8-.2c2.2-1.1,4.3-4.3,4.5-8.2a9.5,9.5,0,0,0-.5-4.1A5.5,5.5,0,0,0,141.7,24Z" style="fill:#ccf"/><path d="M142.1,20c-3.1-1.6-5.9,2.5-5.2,6.1-2.5-2.7-7.6-2.9-8.1.6a5.8,5.8,0,0,0,2.3,5.5,9.7,9.7,0,0,0,4.4,2c2.3.5,4.6.4,5.5-.1s3.7-3.8,4-7.4a9.7,9.7,0,0,0-.4-3.8A5.7,5.7,0,0,0,142.1,20Z" style="fill:#ccf"/><path d="M142.4,16.1c-2.7-1.5-5.2,2.2-4.7,5.5-2.2-2.5-6.8-2.6-7.2.5a5.2,5.2,0,0,0,2,4.9,10.5,10.5,0,0,0,4,1.9,12,12,0,0,0,5,.1c1.5-.8,3.2-3.4,3.5-6.6a8.7,8.7,0,0,0-.2-3.6A4.8,4.8,0,0,0,142.4,16.1Z" style="fill:#ccf"/><path d="M142.8,12.1c-2.5-1.3-4.7,2-4.2,4.9-2-2.2-6.1-2.3-6.5.5a4.7,4.7,0,0,0,1.8,4.3,8.2,8.2,0,0,0,3.5,1.7c2.1.5,4.1.6,4.7.3s2.6-2.9,3-5.8a9.1,9.1,0,0,0-.2-3.3A4.7,4.7,0,0,0,142.8,12.1Z" style="fill:#ccf"/><path d="M143.1,8.2C141,7,139,9.9,139.5,12.4c-1.8-1.9-5.4-2-5.7.4a4.2,4.2,0,0,0,1.5,3.8,8,8,0,0,0,3,1.6,10.6,10.6,0,0,0,4.3.4c.7-.4,2.1-2.4,2.5-4.9a8.1,8.1,0,0,0,0-3.1A3.9,3.9,0,0,0,143.1,8.2Z" style="fill:#ccf"/><path d="M143.5,4.1c-1.9-1-3.6,1.5-3.2,3.7-1.5-1.6-4.6-1.7-4.9.4a3.7,3.7,0,0,0,1.3,3.2,7.7,7.7,0,0,0,2.5,1.4,12.2,12.2,0,0,0,3.9.5c.4-.1,1.5-1.9,2-4a7.2,7.2,0,0,0,.1-2.9A3.5,3.5,0,0,0,143.5,4.1Z" style="fill:#ccf"/><path d="M143.8.2c-1.5-.9-2.9,1.3-2.6,3.1-1.3-1.4-3.9-1.5-4.1.3s1.4,3.2,3.1,3.8a12.2,12.2,0,0,0,3.5.8,15.1,15.1,0,0,0,1.4-3.3,5.8,5.8,0,0,0,.3-2.6A3.1,3.1,0,0,0,143.8.2Z" style="fill:#ccf"/><path d="M91.8,289.9C171.6,270.3,207,228,214.5,197.5c-5.2-10.6-15.8-17.9-28-14.9s-16.7,13-16.3,24.9c0,.3,2.2.6,3.5,1.7s-4.1,3.5-3.8,4.8,7.9,5.1,2,11.1c-2.9,2.9,1.3,7.3-3.3,15.8-.1-.5,1.9-9.1-3.7-12.5-3.3-2,10.8-8-2.1-9.9-2.2-.3-5.4-1.6-2-5.1,1.6-1.7,1.1-2.5.9-2.9-5.2-11.1-15.6-18-28.2-14.9a26.4,26.4,0,0,0-19.3,18.6,20.5,20.5,0,0,0,2.4,16.2c7,11.7,23.5,47.6-24.8,59.4Z" style="fill:#ccf"/><path d="M106.5,202.2s-12.8,29-5.6,37-11,21.1-28-.3-9.5-48.1-9.5-48.1" style="fill:#b894e2;stroke:#ccf;stroke-linecap:round;stroke-miterlimit:10;stroke-width:2px"/><line x1="115.8" y1="151" x2="121.3" y2="122.9" style="fill:none;stroke:#342458;stroke-linecap:round;stroke-linejoin:round;stroke-width:7px"/><line x1="132.6" y1="139.5" x2="104.5" y2="134.4" style="fill:none;stroke:#342458;stroke-linecap:round;stroke-linejoin:round;stroke-width:7px"/><line x1="131.2" y1="143.5" x2="105.9" y2="130.4" style="fill:none;stroke:#342458;stroke-linecap:round;stroke-linejoin:round;stroke-width:7px"/><line x1="111.9" y1="149.6" x2="125.2" y2="124.3" style="fill:none;stroke:#342458;stroke-linecap:round;stroke-linejoin:round;stroke-width:7px"/><line x1="171.5" y1="133.4" x2="153.7" y2="111" style="fill:none;stroke:#342458;stroke-linecap:round;stroke-linejoin:round;stroke-width:7px"/><line x1="151.3" y1="131" x2="173.8" y2="113.4" style="fill:none;stroke:#342458;stroke-linecap:round;stroke-linejoin:round;stroke-width:7px"/><line x1="154.4" y1="133.9" x2="170.8" y2="110.5" style="fill:none;stroke:#342458;stroke-linecap:round;stroke-linejoin:round;stroke-width:7px"/><line x1="174.4" y1="130.3" x2="150.8" y2="114.1" style="fill:none;stroke:#342458;stroke-linecap:round;stroke-linejoin:round;stroke-width:7px"/><circle cx="29.3" cy="133.5" r="29.3" style="fill:#ccf"/><path d="M48,147.3a31.7,31.7,0,0,1-3,3.4" style="fill:none;stroke:#b894e2;stroke-linecap:round;stroke-miterlimit:10;stroke-width:4px"/><path d="M44.6,116.9l1,.9a23.1,23.1,0,0,1,6.1,20.4" style="fill:none;stroke:#b894e2;stroke-linecap:round;stroke-miterlimit:10;stroke-width:4px"/><path d="M12.7,117.2a23.4,23.4,0,0,1,24.4-5" style="fill:none;stroke:#b894e2;stroke-linecap:round;stroke-miterlimit:10;stroke-width:4px"/><circle cx="84.7" cy="53.2" r="19.4" style="fill:#ccf"/><path d="M97,62.3a20,20,0,0,1-1.9,2.2" style="fill:none;stroke:#b894e2;stroke-linecap:round;stroke-miterlimit:10;stroke-width:3px"/><path d="M94.8,42.2l.6.6a15.3,15.3,0,0,1,4.1,13.5" style="fill:none;stroke:#b894e2;stroke-linecap:round;stroke-miterlimit:10;stroke-width:3px"/><path d="M73.7,42.4a15.5,15.5,0,0,1,16.1-3.3" style="fill:none;stroke:#b894e2;stroke-linecap:round;stroke-miterlimit:10;stroke-width:3px"/><circle cx="31.6" cy="59.2" r="15.2" style="fill:#ccf"/><path d="M41.3,66.3,39.8,68" style="fill:none;stroke:#b894e2;stroke-linecap:round;stroke-miterlimit:10;stroke-width:3px"/><path d="M39.6,50.5a1.2,1.2,0,0,0,.5.5,12,12,0,0,1,3.1,10.6" style="fill:none;stroke:#b894e2;stroke-linecap:round;stroke-miterlimit:10;stroke-width:3px"/><path d="M23.1,50.7a12.1,12.1,0,0,1,12.6-2.6" style="fill:none;stroke:#b894e2;stroke-linecap:round;stroke-miterlimit:10;stroke-width:3px"/><circle cx="139.1" cy="298.7" r="23.5" style="fill:#ccf"/><path d="M131.5,281.7a23.8,23.8,0,0,0-3.1,1.7" style="fill:none;stroke:#b894e2;stroke-linecap:round;stroke-miterlimit:10;stroke-width:4px"/><path d="M154.8,289.6l-.6-.9a18.9,18.9,0,0,0-14.9-8.4" style="fill:none;stroke:#b894e2;stroke-linecap:round;stroke-miterlimit:10;stroke-width:4px"/><path d="M148.9,314.6a18.7,18.7,0,0,0,8.2-18.2" style="fill:none;stroke:#b894e2;stroke-linecap:round;stroke-miterlimit:10;stroke-width:4px"/><circle cx="208.8" cy="254.6" r="13.6" style="fill:#ccf"/><path d="M204.5,244.8a6.1,6.1,0,0,0-1.8.9" style="fill:none;stroke:#b894e2;stroke-linecap:round;stroke-miterlimit:10;stroke-width:3px"/><path d="M217.9,249.3l-.3-.5A10.8,10.8,0,0,0,209,244" style="fill:none;stroke:#b894e2;stroke-linecap:round;stroke-miterlimit:10;stroke-width:3px"/><path d="M214.5,263.7a10.7,10.7,0,0,0,4.7-10.5" style="fill:none;stroke:#b894e2;stroke-linecap:round;stroke-miterlimit:10;stroke-width:3px"/><circle cx="195.2" cy="293.1" r="10.6" style="fill:#ccf"/><path d="M191.8,285.4l-1.4.8" style="fill:none;stroke:#b894e2;stroke-linecap:round;stroke-miterlimit:10;stroke-width:3px"/><path d="M202.3,289a.8.8,0,0,0-.2-.4,8.4,8.4,0,0,0-6.8-3.8" style="fill:none;stroke:#b894e2;stroke-linecap:round;stroke-miterlimit:10;stroke-width:3px"/><path d="M199.7,300.3a8.6,8.6,0,0,0,3.7-8.3" style="fill:none;stroke:#b894e2;stroke-linecap:round;stroke-miterlimit:10;stroke-width:3px"/></g></g></svg>