<svg xmlns="http://www.w3.org/2000/svg" viewBox="0 0 222 292.7"><g id="Livello_2" data-name="Livello 2"><g id="Livello_1-2" data-name="Livello 1"><path d="M221.9,156a91.4,91.4,0,0,0-91.4-91.4C80,64.6,38.1,102.4,38.1,156c-.1,11.8,1,35.6,21.8,61.8C67.2,229,67,242,58.1,246.1A39.1,39.1,0,0,0,38.4,224a38.6,38.6,0,0,0-37.2,2A2.5,2.5,0,0,0,0,228.5a38.3,38.3,0,0,0,17.4,27.9A38.7,38.7,0,0,0,0,284.3a2.7,2.7,0,0,0,1.2,2.6,38.7,38.7,0,0,0,55.7-17h0C233,269.9,221.9,156,221.9,156Z" transform="translate(0 0)" style="fill:#b894e2"/><circle cx="126.1" cy="133" r="12.4" style="fill:#342458"/><path d="M167.8,67.8c-5.8-5.3-14.3,2.3-14.8,10.6-4.1-7.3-15.3-10.5-18.1-3.1A13.4,13.4,0,0,0,137.2,89a18.5,18.5,0,0,0,9.2,6.6,20.9,20.9,0,0,0,10.8.4,19,19,0,0,0,14.7-15.1C172.8,76.2,171.9,71.6,167.8,67.8Z" transform="translate(0 0)" style="fill:#ccf"/><path d="M137.6,71.2a13,13,0,0,0-.7,6.9,14.1,14.1,0,0,0,3,6.3,17.9,17.9,0,0,0,8.8,6.3,18.7,18.7,0,0,0,10.2.4A18.2,18.2,0,0,0,173,76.7a16,16,0,0,0-.2-6.9,12.5,12.5,0,0,0-3.7-5.7c-5.6-5.1-13.7,2.2-14.2,10.1C151,67.2,140.3,64.1,137.6,71.2Z" transform="translate(0 0)" style="fill:#ccf"/><path d="M140.3,67.2a11.8,11.8,0,0,0-.6,6.6,14,14,0,0,0,2.9,6,17.5,17.5,0,0,0,18.1,6.4A17.2,17.2,0,0,0,174,72.5a13.4,13.4,0,0,0-.1-6.6,11.7,11.7,0,0,0-3.5-5.6c-5.3-4.8-13.1,2.1-13.5,9.7C153.1,63.3,142.9,60.4,140.3,67.2Z" transform="translate(0 0)" style="fill:#ccf"/><path d="M143,63.1a12,12,0,0,0-.6,6.4,15.1,15.1,0,0,0,2.9,5.8,16.8,16.8,0,0,0,8,5.6,18.1,18.1,0,0,0,9.2.5,16.8,16.8,0,0,0,12.6-13.1,13.8,13.8,0,0,0,0-6.4,11.5,11.5,0,0,0-3.4-5.3c-5.1-4.7-12.4,2-12.9,9.2C155.3,59.4,145.5,56.6,143,63.1Z" transform="translate(0 0)" style="fill:#ccf"/><path d="M145.8,59a10.4,10.4,0,0,0-.6,6.2,13.7,13.7,0,0,0,2.8,5.5,15.8,15.8,0,0,0,7.6,5.3,15.7,15.7,0,0,0,20.6-11.9,13.9,13.9,0,0,0,0-6.1,11.2,11.2,0,0,0-3.2-5.2c-4.8-4.4-11.8,1.9-12.3,8.8C157.4,55.5,148.1,52.9,145.8,59Z" transform="translate(0 0)" style="fill:#ccf"/><path d="M148.5,55a10.1,10.1,0,0,0-.5,5.9,12.4,12.4,0,0,0,2.7,5.2,15.5,15.5,0,0,0,7.1,5,14.8,14.8,0,0,0,8.3.5,15.4,15.4,0,0,0,11.2-11.7,12.6,12.6,0,0,0,0-5.8,9.8,9.8,0,0,0-3-5c-4.6-4.2-11.2,1.8-11.6,8.3C159.5,51.6,150.7,49.1,148.5,55Z" transform="translate(0 0)" style="fill:#ccf"/><path d="M151.2,50.9a9.1,9.1,0,0,0-.4,5.6,12,12,0,0,0,2.6,5,14.5,14.5,0,0,0,6.7,4.7,13.7,13.7,0,0,0,7.7.5,14.7,14.7,0,0,0,10.6-11,13.2,13.2,0,0,0,.1-5.6,9.5,9.5,0,0,0-2.9-4.8c-4.3-3.9-10.6,1.7-11,7.9C161.6,47.7,153.3,45.4,151.2,50.9Z" transform="translate(0 0)" style="fill:#ccf"/><path d="M153.9,46.8a9.3,9.3,0,0,0-.4,5.4,12.1,12.1,0,0,0,2.6,4.7,14,14,0,0,0,6.3,4.4,12.9,12.9,0,0,0,7.2.5,13.6,13.6,0,0,0,9.8-10.3,10.6,10.6,0,0,0,.2-5.3,8.8,8.8,0,0,0-2.7-4.6c-4.1-3.7-10,1.6-10.3,7.4C163.7,43.9,155.9,41.6,153.9,46.8Z" transform="translate(0 0)" style="fill:#ccf"/><path d="M156.6,42.8a8.2,8.2,0,0,0-.3,5.1,12.6,12.6,0,0,0,2.5,4.5,13.5,13.5,0,0,0,5.9,4,12,12,0,0,0,6.7.5,12.9,12.9,0,0,0,9.1-9.6,11,11,0,0,0,.3-5.1,9.7,9.7,0,0,0-2.6-4.4c-3.8-3.4-9.4,1.6-9.7,7C165.8,40,158.5,37.9,156.6,42.8Z" transform="translate(0 0)" style="fill:#ccf"/><path d="M159.4,38.7a7.6,7.6,0,0,0-.3,4.9,11.2,11.2,0,0,0,2.4,4.2,13.1,13.1,0,0,0,5.5,3.7,11.4,11.4,0,0,0,6.2.6c3.5-.9,7.1-4.2,8.4-9a11.2,11.2,0,0,0,.3-4.8,7.6,7.6,0,0,0-2.4-4.2c-3.6-3.3-8.7,1.4-9.1,6.5C167.9,36.1,161.1,34.1,159.4,38.7Z" transform="translate(0 0)" style="fill:#ccf"/><path d="M162.1,34.6a6.2,6.2,0,0,0-.2,4.6,9.8,9.8,0,0,0,2.4,4,11.2,11.2,0,0,0,5,3.4,10.3,10.3,0,0,0,5.6.6c3.2-.7,6.5-3.8,7.8-8.3a10.3,10.3,0,0,0,.3-4.6,6.5,6.5,0,0,0-2.2-3.9c-3.3-3.1-8.1,1.3-8.4,6C170.1,32.2,163.7,30.4,162.1,34.6Z" transform="translate(0 0)" style="fill:#ccf"/><path d="M164.8,30.6a6.4,6.4,0,0,0-.2,4.3,9.8,9.8,0,0,0,2.4,3.7,10.8,10.8,0,0,0,4.6,3.1,9.5,9.5,0,0,0,5.1.6c2.7-.6,5.8-3.5,7.1-7.6a10.5,10.5,0,0,0,.4-4.3,6.6,6.6,0,0,0-2.1-3.8c-3.1-2.8-7.5,1.2-7.8,5.6C172.2,28.3,166.3,26.6,164.8,30.6Z" transform="translate(0 0)" style="fill:#ccf"/><path d="M167.5,26.5a6.4,6.4,0,0,0-.1,4.1,8.6,8.6,0,0,0,2.3,3.4,10,10,0,0,0,4.1,2.8,8.2,8.2,0,0,0,4.7.6c2.3-.5,5.2-3.2,6.3-6.9a7.9,7.9,0,0,0,.5-4,5.6,5.6,0,0,0-1.9-3.6c-2.8-2.6-6.9,1.1-7.1,5.1C174.3,24.4,168.9,22.9,167.5,26.5Z" transform="translate(0 0)" style="fill:#ccf"/><path d="M170.2,22.4a5.8,5.8,0,0,0,0,3.9,9.7,9.7,0,0,0,2.2,3.2,11,11,0,0,0,3.7,2.5,7.3,7.3,0,0,0,4.2.5c1.9-.4,4.5-2.8,5.6-6.2a9.8,9.8,0,0,0,.6-3.8,5.7,5.7,0,0,0-1.8-3.4c-2.6-2.3-6.3,1-6.5,4.7C176.4,20.5,171.5,19.1,170.2,22.4Z" transform="translate(0 0)" style="fill:#ccf"/><path d="M173,18.3a4.7,4.7,0,0,0,0,3.7,8.3,8.3,0,0,0,2.1,2.9,10,10,0,0,0,3.3,2.2,9.4,9.4,0,0,0,3.6.6c1.6-.4,3.9-2.6,5-5.6a8.9,8.9,0,0,0,.6-3.5,4.7,4.7,0,0,0-1.6-3.2c-2.3-2.1-5.7.9-5.9,4.2C178.5,16.7,174.1,15.4,173,18.3Z" transform="translate(0 0)" style="fill:#ccf"/><path d="M175.7,14.3a4.2,4.2,0,0,0,0,3.3,9.3,9.3,0,0,0,2.1,2.7,10.4,10.4,0,0,0,2.9,1.9,7.1,7.1,0,0,0,3.1.6c1.2-.3,3.2-2.2,4.3-4.9a9.8,9.8,0,0,0,.7-3.3,4.6,4.6,0,0,0-1.5-3c-2.1-1.8-5,.8-5.2,3.8C180.6,12.8,176.7,11.7,175.7,14.3Z" transform="translate(0 0)" style="fill:#ccf"/><path d="M178.4,10.2a4.1,4.1,0,0,0,.1,3.1,7.6,7.6,0,0,0,2,2.4,9.6,9.6,0,0,0,2.5,1.6,5.6,5.6,0,0,0,2.6.6c.8-.2,2.6-1.9,3.6-4.2a8.2,8.2,0,0,0,.7-3,3.7,3.7,0,0,0-1.3-2.8c-1.8-1.7-4.4.7-4.6,3.3C182.7,8.9,179.3,7.9,178.4,10.2Z" transform="translate(0 0)" style="fill:#ccf"/><path d="M181.1,6.1a3.2,3.2,0,0,0,.2,2.9,6.3,6.3,0,0,0,1.9,2.1,8,8,0,0,0,2.1,1.3,8.8,8.8,0,0,0,2.1.6,8.5,8.5,0,0,0,2.8-3.5,5.7,5.7,0,0,0,.8-2.8,3.6,3.6,0,0,0-1.1-2.6c-1.6-1.4-3.8.7-3.9,2.9C184.9,5,181.9,4.2,181.1,6.1Z" transform="translate(0 0)" style="fill:#ccf"/><path d="M191.2.4c-1.3-1.2-3.2.5-3.3,2.4-.9-1.7-3.4-2.4-4.1-.7a3.3,3.3,0,0,0,.2,2.6,11.4,11.4,0,0,0,1.9,1.9,13.3,13.3,0,0,0,3.2,1.5,12.9,12.9,0,0,0,2.2-2.8,6.3,6.3,0,0,0,.9-2.5A2.9,2.9,0,0,0,191.2.4Z" transform="translate(0 0)" style="fill:#ccf"/><path d="M158.6,159.3a11.2,11.2,0,0,1-12.1-10.5,2.1,2.1,0,0,1,1.9-2.2,2.2,2.2,0,0,1,2.2,1.9c.2,4,14.8,3,14.5-1a1.9,1.9,0,0,1,1.9-2.1,1.9,1.9,0,0,1,2.1,1.8A11.2,11.2,0,0,1,158.6,159.3Z" transform="translate(0 0)" style="fill:#342458"/><path d="M55.7,181.7s8.8,30.4.6,37.4,8,22.4,27.7,3.4,15.9-46.3,15.9-46.3" transform="translate(0 0)" style="fill:#b894e2;stroke:#ccf;stroke-linecap:round;stroke-miterlimit:10;stroke-width:2px"/><path d="M66.6,269.4c82.2,0,126.6-32.7,141.2-60.6-2.5-11.5-11.1-21.1-23.7-21.1-14.5,0-26.3,11.4-26.3,25.4,0-14-13.7-25.4-28.2-25.4a26.3,26.3,0,0,0-23.2,13.4,20.8,20.8,0,0,0-1.6,16.4c4.1,13,11.6,51.8-38.2,51.8Z" transform="translate(0 0)" style="fill:#ccf"/><circle cx="126.1" cy="125.6" r="2.4" style="fill:#ccf"/><circle cx="119.5" cy="130.5" r="1.8" style="fill:#ccf"/><circle cx="127.9" cy="134.8" r="6.2" style="fill:#ccf"/><circle cx="185.4" cy="130" r="12.4" style="fill:#342458"/><circle cx="181.6" cy="123.7" r="2.4" style="fill:#ccf"/><circle cx="189.8" cy="124.3" r="1.8" style="fill:#ccf"/><circle cx="185" cy="132.4" r="6.2" style="fill:#ccf"/></g></g></svg>